<svg xmlns="http://www.w3.org/2000/svg" width="20" height="21" viewBox="0 0 20 21">
    <path fill="#575756" fill-rule="nonzero" stroke="#575756" d="M18.875 19.512l-5.63-6.16a7.086 7.086 0 0 0 1.965-4.92 7.086 7.086 0 0 0-2.081-5.037 7.052 7.052 0 0 0-5.024-2.087 7.046 7.046 0 0 0-5.024 2.087A7.091 7.091 0 0 0 1 8.433c0 1.903.739 3.692 2.081 5.038a7.052 7.052 0 0 0 5.024 2.087c1.635 0 3.185-.55 4.441-1.563l5.63 6.159a.47.47 0 0 0 .67.03.476.476 0 0 0 .03-.671l-.001-.001zM1.946 8.432c0-3.404 2.763-6.174 6.158-6.174 3.396 0 6.158 2.77 6.158 6.175s-2.762 6.175-6.158 6.175c-3.395 0-6.158-2.77-6.158-6.175z"/>
</svg>
