<svg xmlns="http://www.w3.org/2000/svg" width="140" height="33" viewBox="0 0 140 33">
    <g fill="#FFFFFE" fill-rule="evenodd">
        <path d="M8.141 15.311c0 .178.162.312.487.4.34.09.745.149 1.218.178 1.033.075 2.11.09 3.23.046.546 0 1.167-.09 1.86-.267.692-.12 1.372-.408 2.036-.868.692-.444 1.267-1.096 1.725-1.957.413-.843.634-1.963.665-3.357-.06-2.74-.931-4.682-2.612-5.823-1.726-1.067-3.74-1.602-6.042-1.602-.81-.028-1.43.016-1.858.134-.473.178-.709.696-.709 1.556v11.56zm16.44 12.528c.808 1.213 1.557 2.079 2.248 2.596.69.547 1.263.895 1.72 1.042.484.15.858.237 1.123.267.25.059.376.23.376.51 0 .117-.126.204-.376.263-.265.085-.58.145-.948.174-.75.057-1.287.087-1.611.087-1.603-.03-2.918-.526-3.95-1.49a18.698 18.698 0 0 1-2.844-3.422L15.31 19.91c-.632-1.245-1.192-1.979-1.677-2.201-.5-.178-1.941-.251-4.324-.223-.661 0-1.022.157-1.08.467-.105.297-.134.563-.089.8v9.625c0 .934.25 1.6.753 2 .457.415.988.704 1.593.868l1.637.4c.472.118.709.378.709.777 0 .208-.073.312-.22.312a2.73 2.73 0 0 1-.529.044c-.058-.059-1.788-.117-5.19-.176-1.717.03-3.425.089-5.126.176-.308-.03-.462-.192-.462-.49 0-.31.184-.54.548-.688.323-.119.695-.273 1.12-.467a3.109 3.109 0 0 0 1.118-.955c.337-.385.505-1 .505-1.845V5.153c-.03-1.097-.213-1.853-.55-2.267-.38-.43-.826-.704-1.339-.823-.511-.118-.966-.222-1.36-.311-.41-.103-.616-.318-.616-.644 0-.34.302-.525.904-.556.206.06 1.169.127 2.888.2 2.64-.044 5.15-.11 7.527-.2.234 0 .909-.014 2.024-.044 1.086.03 2.289.26 3.61.69 1.349.37 2.514 1.112 3.498 2.222.998 1.156 1.512 2.83 1.542 5.022-.03 1.78-.572 3.372-1.626 4.78a9.587 9.587 0 0 1-4.039 3.088l7.52 11.53zM35.835 4.406c-.027-.844-.2-1.466-.518-1.866a2.422 2.422 0 0 0-1.181-.711 4.804 4.804 0 0 0-1.18-.377c-.373-.09-.56-.238-.56-.445-.028-.332.11-.5.415-.5 1.558.06 3.116.128 4.674.201 1.322-.044 2.633-.11 3.93-.2.344 0 .57.015.681.045a.66.66 0 0 1 .125.422c0 .238-.153.402-.457.49-.319.09-.679.2-1.08.335-.388.118-.726.37-1.017.756-.333.4-.498 1.023-.498 1.87v24.48c0 .756.207 1.29.623 1.602.374.355.802.6 1.286.735.485.118.92.236 1.308.355.374.149.56.393.56.735a.443.443 0 0 1-.124.311c-.11.09-.351.134-.724.134-.483 0-1.131-.03-1.944-.086a37.552 37.552 0 0 0-2.668-.088c-2.344.029-3.703.088-4.076.174-.358 0-.6-.074-.723-.222-.11-.088-.166-.244-.166-.465 0-.326.186-.548.56-.666.302-.059.682-.17 1.138-.333.457-.147.836-.48 1.14-.998.317-.473.476-1.241.476-2.305V4.406M53.742 26.18c0 .431.014 1.026.044 1.784 0 .342.03.647.089.915 0 .283.052.498.155.647.845.729 1.946 1.242 3.309 1.539 1.39.342 2.62.513 3.686.513 3.36.03 6.284-.988 8.77-3.056 2.488-2.141 3.76-5.8 3.82-10.976-.06-5.085-1.526-9.012-4.397-11.778-2.886-2.736-6.543-4.12-10.969-4.149-2.058 0-3.346.193-3.863.58-.49.431-.705 1.198-.644 2.298V26.18zM50.176 5.345c-.045-1.138-.229-1.966-.552-2.483-.369-.517-.789-.849-1.26-.996-.456-.148-.883-.289-1.28-.422-.413-.088-.62-.25-.62-.487 0-.17.075-.306.222-.406.148-.028.28-.043.4-.043 1.388.06 2.754.127 4.098.2 2.836-.044 6.114-.11 9.837-.2 4.21.03 7.888 1.387 11.035 4.073 3.175 2.67 4.807 6.164 4.896 10.482.032 5.311-1.298 9.563-3.989 12.752-2.76 3.25-7.273 4.904-13.537 4.963l-6.934-.176c-1.729.03-3.42.089-5.074.176-.341-.03-.496-.178-.466-.444 0-.25.184-.436.552-.554.295-.119.655-.251 1.082-.4.412-.192.787-.524 1.126-.997.31-.488.464-1.25.464-2.285V5.345zM112.05 15.894c.224 0 .485-.014.785-.044.311 0 .469.154.469.457 0 .203-.113.32-.336.348-.21.057-.486.145-.83.261-.269.13-.53.34-.783.63-.27.363-.404.912-.404 1.651v9.084c-1.132.347-2.123.76-2.972 1.239a93.556 93.556 0 0 1-2.748 1.52c-.91.464-2.02.862-3.33 1.195a21.18 21.18 0 0 1-2.257.349c-.82.086-1.751.15-2.793.194-10.742-.218-16.202-5.555-16.38-16.015.059-4.904 1.706-8.82 4.939-11.752C88.583 2.038 92.643.536 97.59.508c2.011 0 3.688.145 5.029.435 1.31.305 2.398.667 3.263 1.088.849.35 1.519.676 2.011.981.492.348.886.522 1.184.522.283 0 .5-.145.649-.436.149-.216.328-.34.535-.37.314 0 .484.124.514.37.03.233.03.45 0 .654l.448 5.857a2.4 2.4 0 0 1-.045.478c-.09.218-.239.327-.447.327-.254-.044-.62-.509-1.096-1.398-.283-.421-.604-.88-.962-1.375a15.293 15.293 0 0 0-1.34-1.572c-.97-1.135-2.312-2.118-4.026-2.947-1.744-.874-3.958-1.326-6.642-1.354-4.114.058-7.2 1.492-9.257 4.3-2.072 2.737-3.108 6.026-3.108 9.869 0 4.071 1.164 7.606 3.492 10.605 2.253 3.143 5.595 4.745 10.026 4.803 2.24 0 4.365-.508 6.38-1.523.939-.494 1.7-1.103 2.283-1.828a3.75 3.75 0 0 0 .872-2.437V18.64c0-.538-.195-.921-.583-1.155a4.069 4.069 0 0 0-1.386-.39c-.523-.088-.982-.167-1.379-.24-.447-.087-.67-.247-.67-.479 0-.293.146-.453.439-.48h8.277M122.901 13.77c-.03.728.043 1.175.22 1.34.145.178.64.252 1.487.223h4.833c1.137 0 1.982-.201 2.536-.604.569-.327.934-.736 1.094-1.228.204-.492.35-.915.438-1.274.059-.342.211-.527.458-.557.177 0 .31.09.397.266.06.194.09.394.09.603-.03 1.603-.06 3.141-.09 4.61 0 1.19.03 2.392.09 3.61 0 .386-.161.579-.482.579-.308 0-.49-.208-.547-.623a22.169 22.169 0 0 1-.35-1.38 2.874 2.874 0 0 0-.722-1.402c-.424-.401-1.094-.603-2.013-.603h-6.628c-.424 0-.665.15-.723.446a5.168 5.168 0 0 0-.088 1.023v8.372c0 .638.015 1.187.044 1.647 0 .49.088.899.263 1.225.175.31.503.541.983.69.48.148 1.181.222 2.099.222 1.282 0 2.463-.074 3.542-.222 1.02-.149 1.93-.335 2.732-.557 1.588-.445 2.799-.972 3.63-1.58 1.588-1.47 2.44-2.25 2.557-2.338.233.06.35.245.35.556a4.906 4.906 0 0 1-.676 2.315 11.73 11.73 0 0 1-1.55 2.114c-.683.756-1.338 1.209-1.963 1.357-.654.119-1.461.178-2.42.178l-10.19-.178c-1.817.09-3.636.148-5.453.178-.436 0-.654-.15-.654-.446.028-.253.188-.438.478-.557.174-.09.384-.179.631-.267.204-.09.486-.216.848-.38.567-.267.922-.735 1.067-1.404.117-.638.174-1.493.174-2.563V6.344c.03-1.085-.057-2.073-.261-2.965-.275-.876-.994-1.418-2.154-1.627a2.87 2.87 0 0 1-.74-.236c-.392-.084-.589-.243-.589-.471 0-.172.102-.308.306-.407.218-.087.64-.13 1.265-.13 7.504.06 11.714.127 12.63.2 1.877-.044 4.007-.11 6.392-.2.175 0 .306.097.392.29.03.177.045.415.045.713 0 2.432-.102 3.967-.307 4.604-.233.61-.422.884-.568.824-.248 0-.415-.118-.503-.355a3.56 3.56 0 0 1-.175-.87c0-.37-.016-.735-.044-1.09-.059-.371-.182-.675-.371-.912-.263-.401-.723-.705-1.378-.913a8.767 8.767 0 0 0-2.143-.334c-1.706-.06-3.07-.074-4.09-.045-2.055-.03-3.28.066-3.674.29-.262.119-.408.386-.437.8-.057.401-.088.995-.088 1.782v8.477"/>
    </g>
</svg>
